<?xml version="1.0" encoding="UTF-8"?>
<svg width="297mm" height="210mm" version="1.1" viewBox="0 0 297 210" xml:space="preserve" xmlns="http://www.w3.org/2000/svg"><g transform="translate(13.333 39.715)"><path d="m-12.532 113.9 7.9003-3.591 1.3598 2.6786 7.0193-0.76334c4.0909-0.44489 10.534-3.8304 10.534-3.8304l1.197-1.197 4.2121 4.42 5.6034 2.762 7.0563 3.0806 6.829 2.1863 3.3516 4.3092 9.637-5.2117 11.43-8.6736 12.487 11.375 11.405-8.6737 13.11-7.5135 2.1402-2.955 23.248-11.262 4.5534 2.2769 5.8289 7.7882 15.178 11.44 11.931 8.2865 13.388-4.7853 5.8511-4.4355 7.5192-0.44531 1.5967-2.5985 8.0387-2.81 6.93 6.863 10.781-1.4392 1.3848 2.7185 5.5151-5.2367 5.5238-3.1654 4.9192 0.29864 3.4268 2.266 3.6235-2.5394 7.9491 0.22443 2.3211 2.0907 8.6915 1.7364 10.317 1.6229 1.8418-4.1494 3.2155-2.6228 3.1967 0.31816 1.3151 1.597 3.9577 1.1363-0.74077 102.3-297.26-0.78567z" fill="#c8a6cc" stroke="#c8a6cc" stroke-linejoin="round"/></g><g><path transform="translate(13.333 39.715)" d="m-12.532 113.9 7.9003-3.591 1.3598 2.6786 7.0193-0.76334 10.534-3.8304 1.4029 0.45024 3.4708 3.0611 5.068 3.4621 6.9739 3.3276 4.6876 2.9275 0.21477 2.2628 6.4314 0.0697 9.637-5.2117 11.43-8.6736 4.2471 7.5315 1.4865 7.3855 10.997-5.4714 7.1613-6.7439 13.11-7.5135 2.1402-2.955 15.511-7.6416 7.7378-3.6203 1.6707 4.6654-1.5837 3.5465 2.7859 5.42 2.0086 7.6073-0.90051 4.5896 6.9194 3.3458 0.42012 3.981 10.31 1.6049 12.172-1.4145 3.6883-3.5548 13.388-4.7853 5.8511-4.4355 7.5192-0.44531 1.5967-2.5985 7.2975-2.6453 1.8235 6.2865 5.548 0.78392 11.08-1.8113 1.3848 2.7185 5.5151-5.2367 5.5238-3.1654 3.7662 2.0694 3.6327 2.0189 4.5706-4.0631 5.3547 1.7481 5.4097 2.379 8.0326 1.407 10.482 0.1404 1.8418-4.1494 3.2155-2.6228 1.6318 2.0066 0.86213 1.0204 2.9642 1.6627 3.0113-1.6383-0.74077 102.3-297.26-0.78567z" fill="#a497c2" stroke="#a497c2" stroke-linejoin="round"/></g><g><path transform="translate(13.333 39.715)" d="m-12.646 115.9 5.4612-1.1829 8.5254 0.20768 8.3371 0.80155 6.9921-1.1125 8.7744 6.0921 4.9122 2.1139 2.9266 5.9741 6.315 2.8335 5.6759-0.0787 4.6084-2.6742 4.6412-5.6517 3.0203 0.23338 11.126 7.6944 5.2366 1.3217 1.4683-3.31 7.4431-1.023 6.5373 0.36496 4.2033-0.18322 3.9213 2.7548 3.983-1.3626 7.2896-2.0136 7.2492-0.90233 2.0848 2.308 8.8365-4.634 6.8077 2.6332 4.5454 2.6538 6.676-0.64961 8.2051 2.168 2.6761-2.3298 10.079-0.14182 2.5463-2.7917 2.9082 2.4229 3.5154-1.6778 2.8892 0.95976 8.396-1.8252 10.775-5.5459 5.1972 4.9321 6.1888-0.0966 3.283-1.1104 4.162-1.4406 6.2442-3.994 6.3387 0.65226 3.7119-1.5593 7.0606-4.2313 2.0678 3.5426 5.3531-1.6334 5.3959 0.0597 4.1331-2.1098 5.7264 1.201 9.4114-2.2893 2.8301-0.11359 2.186 1.5365 2.0764-0.80776 2.5459-0.83179 1.8654 0.33367 2.0641 2.97-0.74077 94.42-297.26-0.78567z" fill="#8a8dc0" stroke="#8a8dc0" stroke-linejoin="round"/></g><g><path transform="translate(13.333 39.715)" d="m-12.532 119.95 5.7174-1.8108 8.7105 1.8743 5.0965-1.6057 3.1034 1.1096 6.0893 0.35163 7.0417 3.6879 6.6301 4.4927 9.7408 3.5742 5.6759-0.0787 1.3679 3.6218 6.3078-1.9482 7.372-1.3406 3.4412 5.6574 6.718-0.99302 4.6162-1.5508 4.2025 0.0881 11.815-6.5791 2.4441-0.18322 3.8287-2.7079 4.0756 4.1001 4.1416 5.3934 5.2123 1.7827 6.529-1.7659 4.7626 1.3842 8.8447 0.68888 4.0824 2.2834 11.491-1.7607 10.427 0.68655 9.1573-4.7371 6.283-5.3268 3.5648-1.1251 3.4637 4.2746 6.6634-0.28897 6.9631 1.3301 9.3564-0.61212 5.012 2.247 7.1146-1.7632 9.9494-3.8881 8.0507-0.79252 4.0221-1.0312 1.4315-2.8661 6.1191-1.3741 6.0422-1.1759 3.6418-1.5498 0.72368-3.8556 5.581 1.8189 5.8923 1.2234 6.0968-3e-3 5.4592-0.56869 2.8911 2.7378 4.1842 1.8204-0.57314 86.876-297.26-0.78567z" fill="#7475ae" stroke="#7475ae" stroke-linejoin="round"/></g></svg>
